<svg xmlns="http://www.w3.org/2000/svg" viewBox="0 0 665.91 127.43"><defs><style>.cls-1{fill:#00973b;}.cls-2{fill:#fff;}</style></defs><g id="レイヤー_2" data-name="レイヤー 2"><g id="レイヤー_1-2" data-name="レイヤー 1"><path class="cls-1" d="M127.43,63.72A63.72,63.72,0,1,1,63.72,0,63.7,63.7,0,0,1,127.43,63.72Z"/><path class="cls-1" d="M193.83,44a27,27,0,0,0-12.51-3C174.2,41,171,44.84,171,48.77c0,5,3.47,7.31,12.06,11.23,11.23,5,16.25,11.51,16.25,20.73,0,12.24-9.22,21.19-25.57,21.19-6.94,0-14-1.92-17.26-3.93l2.65-11.32a31.51,31.51,0,0,0,15.16,3.93c7.49,0,11.42-3.57,11.42-8.77,0-5-3.38-8-11.15-11.42C164,65.85,157.4,59.27,157.4,50.14c0-11.51,9-20.36,24.2-20.36A34,34,0,0,1,196.66,33Z"/><path class="cls-1" d="M221.13,57.08c3.29-5.2,8.5-8,15.07-8,11.14,0,19.36,10.41,19.36,26C255.56,93.79,245,102,234.65,102c-5.57,0-9.86-2.55-12.06-5.93h-.18v25.29H208.9V66.76c0-6.58-.19-12-.37-16.62h11.78l.64,6.94Zm1.28,23.38c0,7.4,4.48,11,9,11,6.85,0,10.41-6.76,10.41-15.89s-3.47-15.62-10.13-15.62c-5.21,0-9.32,4.93-9.32,11Z"/><path class="cls-1" d="M309.44,75.16C309.44,94.52,297,102,285.69,102c-13.7,0-23.56-9.68-23.56-26.21,0-17.07,10.32-26.76,24.11-26.76C300.49,49,309.44,59.73,309.44,75.16ZM286,59c-7.49,0-10.14,8.77-10.14,16.53,0,9,3.47,16.53,10,16.53,6.4,0,9.87-7.58,9.87-16.62C295.74,67.49,292.91,59,286,59Z"/><path class="cls-1" d="M347,62.19a19.32,19.32,0,0,0-3.47-.27c-6.12,0-10.77,4.11-10.77,12.79V101H319.2V66c0-6.3-.18-11.32-.37-15.89h11.6L331,59h.37c2.37-6.58,7.85-10,12.6-10a14.2,14.2,0,0,1,3,.28Z"/><path class="cls-1" d="M361.2,40.83l13.34-3.93V50.14h11.23v10H374.54V82.2c0,6.12,1.91,8.67,6,8.67a19.26,19.26,0,0,0,4.39-.46l.18,10.32a27.23,27.23,0,0,1-9,1.19c-14.61,0-14.89-12.69-14.89-18.36V60.09h-6.66v-10h6.66Z"/><path class="cls-1" d="M425.12,43.47a7,7,0,0,1-7.22-7.21,7.27,7.27,0,0,1,14.53,0A6.93,6.93,0,0,1,425.12,43.47ZM432,101H418.45V50.14H432Z"/><path class="cls-1" d="M487.58,101H474.07V71.33c0-6.21-2-11.15-7.76-11.15-3.66,0-8.68,2.84-8.68,10.6V101H444.11V65.48c0-5.93-.18-10.77-.36-15.25h11.69l.64,6.85h.27a17.1,17.1,0,0,1,14.71-7.94c9.31,0,16.52,6.48,16.52,20.73Z"/><path class="cls-1" d="M558.71,101H520.08V30.78H533.6V89.59h25.11Z"/><path class="cls-1" d="M573.68,43.47a7,7,0,0,1-7.21-7.21,7.26,7.26,0,0,1,14.52,0A6.92,6.92,0,0,1,573.68,43.47ZM580.53,101H567V50.14h13.51Z"/><path class="cls-1" d="M594.41,48c0-15.34,9-21.46,18.9-21.46a26.21,26.21,0,0,1,8,1.19l-1,10.41a14.13,14.13,0,0,0-4.94-.83c-7.58,0-7.58,7.68-7.58,12.79H618v10H607.92V101H594.41V60.09h-6.76v-10h6.76Z"/><path class="cls-1" d="M663.35,99a43.13,43.13,0,0,1-16.43,2.92c-15.71,0-24.66-9.86-24.66-25.66,0-14.61,8.4-27.22,23.29-27.22,12.32,0,20.36,8.77,20.36,25.21a31.67,31.67,0,0,1-.36,5.39H635.14c.36,8.68,6.57,12.14,13.88,12.14a37,37,0,0,0,12.42-2.1Zm-10-28.77c.09-5.29-2-11.78-8.67-11.78-6.49,0-9.23,6.76-9.59,11.78Z"/><path class="cls-2" d="M63.84,24.89l-.69,0a8.66,8.66,0,0,0,.67,17.29c.23,0,.46,0,.68,0a8.66,8.66,0,0,0,8-9.31A8.7,8.7,0,0,0,63.84,24.89Z"/><path class="cls-2" d="M107.15,72.54a79.89,79.89,0,0,0-18.66-5.19,53.09,53.09,0,0,0,2.4-8.08,49.68,49.68,0,0,0-5.65-35.52.63.63,0,0,0-.54-.31l-.17,0a.62.62,0,0,0-.45.62c.47,16.09-7.15,24-13.88,30.94l-.52.54a.63.63,0,0,0,0,.83c7.09,8.28,10.75,19.21,10.81,23a.64.64,0,0,0,.41.57.54.54,0,0,0,.22,0,.63.63,0,0,0,.47-.22A43.84,43.84,0,0,0,88,68.6c13.75,2.67,22.55,7.46,22.55,12.61,0,3.78-4.92,7.55-13.49,10.33A99.8,99.8,0,0,1,74,95.64,43.35,43.35,0,0,0,70.51,72C65.25,60.75,59.23,54.3,52.85,47.47c-7.47-8-15.2-16.26-21.79-33.06a.62.62,0,0,0-.58-.4h-.06a.61.61,0,0,0-.55.51c0,.25-4.23,24.86,6.4,43.19,1.66,2.86,3.56,5.94,5.56,9.19a84.79,84.79,0,0,0-21.55,5.63c-7,3.09-10.7,6.82-10.7,10.79,0,5,5.85,10.08,16,14,10,3.87,22.58,6.09,35.72,6.33,2.2,6.49,3.15,12.6,2,17.83a.62.62,0,0,0,.36.71.7.7,0,0,0,.25.05.63.63,0,0,0,.51-.27,66.75,66.75,0,0,0,7.32-15.87c.27-.87.52-1.79.77-2.73a101.87,101.87,0,0,0,29.28-6c10.2-4,16-9.07,16-14C117.85,79.36,114.15,75.63,107.15,72.54Zm-76.78,19C21.8,88.76,16.88,85,16.88,81.21,16.88,75.68,27,70.57,42.54,68l.16.27C48,76.92,54,86.58,58.24,95.9,47.71,95.51,38,94,30.37,91.54Z"/></g></g></svg>